<mxfile host="app.diagrams.net" modified="2025-10-22T09:59:18.496531" version="20.3.0">
  <diagram id="flow" name="Booking Flow">
    <mxGraphModel dx="1400" dy="900" grid="1" gridSize="10" guides="1" tooltips="1" connect="1" arrows="1" page="1" pageScale="1" pageWidth="1920" pageHeight="1080">
      <root>
        <mxCell id="0"/><mxCell id="1" parent="0"/>
        <mxCell id="start" value="Start" style="shape=ellipse;whiteSpace=wrap;html=1;fillColor=#dae8fc;strokeColor=#6c8ebf;" vertex="1" parent="1"><mxGeometry x="160" y="80" width="120" height="50" as="geometry"/></mxCell>
        <mxCell id="s1" value="Select property & dates" style="rounded=1;whiteSpace=wrap;html=1;fillColor=#fff2cc;strokeColor=#d6b656;" vertex="1" parent="1"><mxGeometry x="320" y="80" width="220" height="60" as="geometry"/></mxCell>
        <mxCell id="s2" value="Check availability" style="rounded=1;whiteSpace=wrap;html=1;fillColor=#d5e8d4;strokeColor=#82b366;" vertex="1" parent="1"><mxGeometry x="580" y="80" width="180" height="60" as="geometry"/></mxCell>
        <mxCell id="d1" value="Available?" style="shape=rhombus;whiteSpace=wrap;html=1;fillColor=#ffe6cc;strokeColor=#d79b00;" vertex="1" parent="1"><mxGeometry x="800" y="70" width="150" height="90" as="geometry"/></mxCell>
        <mxCell id="s3" value="Create PENDING booking" style="rounded=1;whiteSpace=wrap;html=1;fillColor=#d5e8d4;strokeColor=#82b366;" vertex="1" parent="1"><mxGeometry x="580" y="230" width="200" height="60" as="geometry"/></mxCell>
        <mxCell id="s4" value="Create payment intent" style="rounded=1;whiteSpace=wrap;html=1;fillColor=#d5e8d4;strokeColor=#82b366;" vertex="1" parent="1"><mxGeometry x="820" y="230" width="190" height="60" as="geometry"/></mxCell>
        <mxCell id="s5" value="Guest confirms payment" style="rounded=1;whiteSpace=wrap;html=1;fillColor=#fff2cc;strokeColor=#d6b656;" vertex="1" parent="1"><mxGeometry x="580" y="360" width="200" height="60" as="geometry"/></mxCell>
        <mxCell id="s6" value="Provider returns status" style="rounded=1;whiteSpace=wrap;html=1;fillColor=#fff2cc;strokeColor=#d6b656;" vertex="1" parent="1"><mxGeometry x="820" y="360" width="200" height="60" as="geometry"/></mxCell>
        <mxCell id="d2" value="Payment successful?" style="shape=rhombus;whiteSpace=wrap;html=1;fillColor=#ffe6cc;strokeColor=#d79b00;" vertex="1" parent="1"><mxGeometry x="580" y="480" width="180" height="90" as="geometry"/></mxCell>
        <mxCell id="s7" value="Confirm booking & lock dates" style="rounded=1;whiteSpace=wrap;html=1;fillColor=#d5e8d4;strokeColor=#82b366;" vertex="1" parent="1"><mxGeometry x="820" y="480" width="220" height="60" as="geometry"/></mxCell>
        <mxCell id="s8" value="Cancel/Expire booking" style="rounded=1;whiteSpace=wrap;html=1;fillColor=#f8cecc;strokeColor=#b85450;" vertex="1" parent="1"><mxGeometry x="360" y="480" width="200" height="60" as="geometry"/></mxCell>
        <mxCell id="s9" value="Send notifications (guest & host)" style="rounded=1;whiteSpace=wrap;html=1;fillColor=#d5e8d4;strokeColor=#82b366;" vertex="1" parent="1"><mxGeometry x="1060" y="430" width="220" height="60" as="geometry"/></mxCell>
        <mxCell id="end" value="End" style="shape=ellipse;whiteSpace=wrap;html=1;fillColor=#dae8fc;strokeColor=#6c8ebf;" vertex="1" parent="1"><mxGeometry x="1060" y="520" width="120" height="50" as="geometry"/></mxCell>

        <!-- Edges -->
        <mxCell id="e1" edge="1" source="start" target="s1" style="endArrow=block;" parent="1"><mxGeometry relative="1" as="geometry"/></mxCell>
        <mxCell id="e2" edge="1" source="s1" target="s2" style="endArrow=block;" parent="1"><mxGeometry relative="1" as="geometry"/></mxCell>
        <mxCell id="e3" edge="1" source="s2" target="d1" style="endArrow=block;" parent="1"><mxGeometry relative="1" as="geometry"/></mxCell>
        <mxCell id="e4" edge="1" source="d1" target="s3" value="Yes" style="endArrow=block;" parent="1"><mxGeometry relative="1" as="geometry"/></mxCell>
        <mxCell id="e5" edge="1" source="d1" target="end" value="No" style="endArrow=block;" parent="1"><mxGeometry relative="1" as="geometry"/></mxCell>
        <mxCell id="e6" edge="1" source="s3" target="s4" style="endArrow=block;" parent="1"><mxGeometry relative="1" as="geometry"/></mxCell>
        <mxCell id="e7" edge="1" source="s4" target="s5" style="endArrow=block;" parent="1"><mxGeometry relative="1" as="geometry"/></mxCell>
        <mxCell id="e8" edge="1" source="s5" target="s6" style="endArrow=block;" parent="1"><mxGeometry relative="1" as="geometry"/></mxCell>
        <mxCell id="e9" edge="1" source="s6" target="d2" style="endArrow=block;" parent="1"><mxGeometry relative="1" as="geometry"/></mxCell>
        <mxCell id="e10" edge="1" source="d2" target="s7" value="Yes" style="endArrow=block;" parent="1"><mxGeometry relative="1" as="geometry"/></mxCell>
        <mxCell id="e11" edge="1" source="d2" target="s8" value="No" style="endArrow=block;" parent="1"><mxGeometry relative="1" as="geometry"/></mxCell>
        <mxCell id="e12" edge="1" source="s7" target="s9" style="endArrow=block;" parent="1"><mxGeometry relative="1" as="geometry"/></mxCell>
        <mxCell id="e13" edge="1" source="s9" target="end" style="endArrow=block;" parent="1"><mxGeometry relative="1" as="geometry"/></mxCell>
      </root>
    </mxGraphModel>
  </diagram>
</mxfile>
